# xmcd
#
# Track frame offsets:
#	150
#	15990
#	36232
#	51005
#	69140
#	86385
#	103848
#	122570
#	140383
#	153910
#	170010
#	186434
#	205148
#	220935
#
# Disc length: 3203 seconds
#
# Revision: 1
# Processed by: cddbd v1.5.1PL0 Copyright (c) Steve Scherf et al.
# Submitted via: audiograbber 1.81.02
#
DISCID=b90c810e
DTITLE=Various Artist - My kind of Worship - The power of your love (www.gerth.de)
DYEAR=2004
DGENRE=Pop
TTITLE0=I wanna know what love is/The Power of Your Love
TTITLE1=Breathe/How do I live without you
TTITLE2=Because of You
TTITLE3=Above all
TTITLE4=God will make a way
TTITLE5=Only by grace
TTITLE6=Lord I long
TTITLE7=I will sing
TTITLE8=Open the eyes of my heart
TTITLE9=This is my desire
TTITLE10=All heaven declares
TTITLE11=Jesus all for Jesus
TTITLE12=Crown Him with many Crowns
TTITLE13=Majesty
EXTD=
EXTT0=
EXTT1=
EXTT2=
EXTT3=
EXTT4=
EXTT5=
EXTT6=
EXTT7=
EXTT8=
EXTT9=
EXTT10=
EXTT11=
EXTT12=
EXTT13=
PLAYORDER=
